# xmcd CD database file
#
# Track frame offsets:
#	150
#	20141
#	46105
#	64822
#	92368
#	119859
#	143117
#	180237
#	194722
#	244452
#
# Disc length: 3477 seconds
#
# Revision: 0
# Processed by: cddbd v1.5.2PL0 Copyright (c) Steve Scherf et al.
# Submitted via: CDex 1.51
#
DISCID=910d930a
DTITLE=Drink Small - Tryin to Survive at 75
DYEAR=1900
DGENRE=Blues
TTITLE0=Bishopville is my Hometown
TTITLE1=Drink Small Boogie
TTITLE2=When You Tell One Lie, You gotta Tell Another
TTITLE3=Dow What the Lord Say Do
TTITLE4=The Lord Been Good To Me
TTITLE5=Three River Blues
TTITLE6=Never Too Late to Do Right
TTITLE7=Don't Bump My Stacy Adams Shoes
TTITLE8=Tryin to Survive at 75
TTITLE9=The Righteous Will Always Win
EXTD=
EXTT0=
EXTT1=
EXTT2=
EXTT3=
EXTT4=
EXTT5=
EXTT6=
EXTT7=
EXTT8=
EXTT9=
PLAYORDER=
